<?xml version="1.0" encoding="utf-8"?>
<!-- Generator: Avocode 2.3.2-e7da973 - http://avocode.com -->
<svg height="27" width="116" xmlns:xlink="http://www.w3.org/1999/xlink" xmlns="http://www.w3.org/2000/svg" viewBox="0 0 116 27">
    <path fill="#ffffff" fill-rule="evenodd" d="M 1.07 6.74 C 0.82 6.74 0.68 6.88 0.68 7.13 L 0.68 21.61 C 0.68 21.86 0.88 22 1.07 22 L 3.54 22 C 3.79 22 3.93 21.86 3.93 21.61 L 3.93 11.56 C 4.91 10.24 6.17 9.57 7.71 9.57 C 9.58 9.57 10.51 10.8 10.96 12.4 C 11.04 12.65 11.21 12.7 11.46 12.62 L 13.67 11.86 C 13.9 11.78 13.98 11.61 13.92 11.33 C 13.34 8.56 11.21 6.52 8.02 6.52 C 6.34 6.52 5.02 7.13 3.93 8.22 L 3.79 8.22 L 3.51 7.08 C 3.45 6.85 3.31 6.74 3.12 6.74 L 1.07 6.74 Z M 29.07 17.6 C 28.93 17.44 28.76 17.44 28.62 17.58 C 27.17 18.78 25.66 19.17 23.75 19.17 C 21.29 19.17 19.55 17.83 19.02 15.9 L 31 15.9 C 31.23 15.9 31.34 15.76 31.34 15.5 L 31.34 14.38 C 31.34 9.82 28.15 6.52 23.61 6.52 C 19.05 6.52 15.63 9.82 15.63 14.38 C 15.63 18.89 18.96 22.22 23.75 22.22 C 25.99 22.22 28.37 21.58 30.39 19.87 C 30.53 19.73 30.56 19.56 30.42 19.42 L 29.07 17.6 Z M 23.61 9.57 C 25.82 9.57 27.81 10.91 28.04 12.87 L 18.99 12.87 C 19.44 10.94 21.34 9.57 23.61 9.57 L 23.61 9.57 Z M 37 26.45 C 37.25 26.45 37.39 26.31 37.39 26.06 L 37.39 20.82 C 38.62 21.83 40.05 22.22 41.84 22.22 C 46.38 22.22 49.65 19.09 49.65 14.38 C 49.65 9.68 46.35 6.52 41.84 6.52 C 40.05 6.52 38.37 7.08 37.22 8.2 L 37.02 8.17 L 36.77 7.08 C 36.72 6.85 36.58 6.74 36.35 6.74 L 34.53 6.74 C 34.28 6.74 34.14 6.88 34.14 7.13 L 34.14 26.06 C 34.14 26.31 34.28 26.45 34.53 26.45 L 37 26.45 Z M 37.39 11.39 C 38.59 10.07 39.96 9.6 41.84 9.6 C 44.5 9.6 46.43 11.44 46.43 14.38 C 46.43 17.3 44.5 19.14 41.84 19.14 C 40.02 19.14 38.54 18.56 37.39 17.41 L 37.39 11.39 Z M 65.33 17.6 C 65.19 17.44 65.02 17.44 64.88 17.58 C 63.43 18.78 61.92 19.17 60.01 19.17 C 57.55 19.17 55.81 17.83 55.28 15.9 L 67.26 15.9 C 67.49 15.9 67.6 15.76 67.6 15.5 L 67.6 14.38 C 67.6 9.82 64.41 6.52 59.87 6.52 C 55.31 6.52 51.89 9.82 51.89 14.38 C 51.89 18.89 55.22 22.22 60.01 22.22 C 62.25 22.22 64.63 21.58 66.65 19.87 C 66.79 19.73 66.82 19.56 66.68 19.42 L 65.33 17.6 Z M 59.87 9.57 C 62.08 9.57 64.07 10.91 64.3 12.87 L 55.25 12.87 C 55.7 10.94 57.6 9.57 59.87 9.57 L 59.87 9.57 Z M 71.02 6.8 L 69.2 6.96 C 68.97 6.99 68.86 7.13 68.86 7.33 L 68.86 9.37 C 68.86 9.62 69 9.76 69.25 9.76 L 70.99 9.76 L 70.99 17.1 C 70.99 20.1 72.44 22.22 75.8 22.22 C 77.23 22.22 78.3 21.92 79.33 21.24 C 79.58 21.1 79.64 20.94 79.53 20.68 L 78.77 18.89 C 78.69 18.7 78.52 18.58 78.21 18.72 C 77.62 19.03 76.95 19.17 76.2 19.17 C 74.99 19.17 74.24 18.44 74.24 17.02 L 74.24 9.76 L 78.38 9.76 C 78.63 9.76 78.77 9.62 78.77 9.37 L 78.77 7.13 C 78.77 6.88 78.63 6.74 78.38 6.74 L 74.24 6.74 L 74.24 3.77 C 74.24 3.52 74.04 3.38 73.84 3.38 L 71.72 3.38 C 71.49 3.38 71.35 3.52 71.32 3.77 L 71.02 6.8 Z M 83.48 5.03 C 84.68 5.03 85.77 3.94 85.77 2.71 C 85.77 1.48 84.68 0.36 83.48 0.36 C 82.22 0.36 81.12 1.45 81.12 2.71 C 81.12 3.94 82.24 5.03 83.48 5.03 L 83.48 5.03 Z M 82.22 6.74 C 81.96 6.74 81.82 6.88 81.82 7.13 L 81.82 21.61 C 81.82 21.86 81.96 22 82.22 22 L 84.68 22 C 84.93 22 85.07 21.86 85.07 21.61 L 85.07 7.13 C 85.07 6.88 84.93 6.74 84.68 6.74 L 82.22 6.74 Z M 89.61 6.8 L 87.79 6.96 C 87.56 6.99 87.45 7.13 87.45 7.33 L 87.45 9.37 C 87.45 9.62 87.59 9.76 87.84 9.76 L 89.58 9.76 L 89.58 17.1 C 89.58 20.1 91.04 22.22 94.4 22.22 C 95.82 22.22 96.89 21.92 97.92 21.24 C 98.18 21.1 98.23 20.94 98.12 20.68 L 97.36 18.89 C 97.28 18.7 97.11 18.58 96.8 18.72 C 96.22 19.03 95.54 19.17 94.79 19.17 C 93.58 19.17 92.83 18.44 92.83 17.02 L 92.83 9.76 L 96.97 9.76 C 97.22 9.76 97.36 9.62 97.36 9.37 L 97.36 7.13 C 97.36 6.88 97.22 6.74 96.97 6.74 L 92.83 6.74 L 92.83 3.77 C 92.83 3.52 92.63 3.38 92.44 3.38 L 90.31 3.38 C 90.08 3.38 89.94 3.52 89.92 3.77 L 89.61 6.8 Z M 89.61 6.8" />
    <path fill="#6fbef3" fill-rule="evenodd" d="M 100.85 6.74 C 100.6 6.74 100.54 6.96 100.65 7.16 L 106.06 14.02 L 100.06 21.64 C 99.92 21.83 100.04 22 100.23 22 L 102.67 22 C 102.89 22 103.09 21.89 103.26 21.69 L 107.6 15.62 L 107.74 15.62 L 112.27 21.72 C 112.41 21.92 112.61 22 112.83 22 L 115.3 22 C 115.55 22 115.63 21.8 115.49 21.61 L 109.42 13.96 L 114.88 7.1 C 114.99 6.96 114.9 6.74 114.65 6.74 L 112.22 6.74 C 111.99 6.74 111.82 6.82 111.71 6.96 L 107.82 12.31 L 107.68 12.31 L 103.65 6.94 C 103.56 6.82 103.48 6.74 103.17 6.74 L 100.85 6.74 Z M 100.85 6.74" />
</svg>